<svg width="24" height="24" viewBox="0 0 24 24" fill="none" xmlns="http://www.w3.org/2000/svg">
<path d="M5.57617 12.2441C5.57617 12.0293 5.65137 11.8467 5.8125 11.6963L14.4062 3.51074C14.5459 3.37109 14.7285 3.2959 14.9326 3.2959C15.3516 3.2959 15.6738 3.61816 15.6738 4.03711C15.6738 4.24121 15.5879 4.42383 15.4697 4.56348L7.3916 12.2441L15.4697 19.9248C15.5879 20.0537 15.6738 20.2363 15.6738 20.4404C15.6738 20.8701 15.3516 21.1816 14.9326 21.1816C14.7285 21.1816 14.5459 21.1064 14.4062 20.9668L5.8125 12.792C5.65137 12.6416 5.57617 12.459 5.57617 12.2441Z" fill="white"/>
</svg>
