<svg width="18" height="19" viewBox="0 0 18 19" fill="none" xmlns="http://www.w3.org/2000/svg">
<path d="M8.99902 18.4697C4.17383 18.4697 0.183594 14.4795 0.183594 9.6543C0.183594 4.82031 4.16504 0.838867 8.99023 0.838867C13.8242 0.838867 17.8145 4.82031 17.8145 9.6543C17.8145 14.4795 13.8242 18.4697 8.99902 18.4697ZM8.99902 17.3271C13.2529 17.3271 16.6807 13.8994 16.6807 9.6543C16.6719 5.40039 13.2441 1.97266 8.99023 1.97266C4.74512 1.97266 1.32617 5.40039 1.32617 9.6543C1.32617 13.8994 4.74512 17.3271 8.99902 17.3271ZM4.21777 10.5156C3.94531 10.5156 3.74316 10.3047 3.74316 10.0322C3.74316 9.76855 3.94531 9.55762 4.21777 9.55762H8.51562V3.87109C8.51562 3.59863 8.72656 3.39648 8.99023 3.39648C9.27148 3.39648 9.48242 3.59863 9.48242 3.87109V10.0322C9.48242 10.3047 9.27148 10.5156 8.99023 10.5156H4.21777Z" fill="white"/>
</svg>
